<svg xmlns="http://www.w3.org/2000/svg" version="1.1" xmlns:xlink="http://www.w3.org/1999/xlink" width="512.000000pt" height="512.000000pt"><svg version="1.0" xmlns="http://www.w3.org/2000/svg" width="512.000000pt" height="512.000000pt" viewBox="0 0 512.000000 512.000000" preserveAspectRatio="xMidYMid meet">
<metadata>
Created by potrace 1.16, written by Peter Selinger 2001-2019
</metadata>
<g transform="translate(0.000000,512.000000) scale(0.100000,-0.100000)" fill="#000000" stroke="none">
<path d="M4081 4745 c-51 -71 -204 -228 -290 -297 -87 -70 -190 -123 -273
-139 l-56 -11 -79 43 c-238 133 -437 196 -694 220 -317 31 -633 -45 -971 -232
l-57 -31 -70 15 c-39 9 -92 27 -118 41 -98 49 -288 219 -398 355 l-59 74 -15
-49 c-9 -32 -14 -102 -15 -204 -1 -137 2 -161 21 -207 21 -52 19 -65 -5 -41
-18 18 -16 -6 4 -45 36 -70 129 -168 223 -235 41 -30 42 -32 18 -32 -14 0 -37
4 -51 10 -38 14 -32 7 29 -35 51 -36 62 -55 29 -55 -17 0 -19 -17 -2 -22 8 -3
-2 -33 -30 -89 -129 -262 -143 -556 -39 -804 24 -58 114 -199 159 -251 l31
-35 38 43 c36 41 38 42 55 25 18 -16 16 -20 -41 -77 -33 -33 -57 -60 -54 -60
3 0 29 18 58 40 l53 39 60 -41 c99 -67 205 -114 353 -158 440 -129 527 -175
622 -328 l46 -74 30 49 c45 73 106 151 125 158 14 5 15 4 5 -6 -36 -36 6 -79
76 -79 41 0 49 4 99 55 39 41 58 54 72 50 10 -3 31 -2 47 2 25 7 21 8 -26 13
-54 6 -55 5 -96 -36 -49 -49 -104 -71 -135 -54 -29 15 -25 34 14 73 43 43 159
90 376 152 217 62 294 92 401 160 l89 57 36 -32 c55 -48 54 -26 -2 31 -47 48
-48 51 -29 65 17 13 23 11 60 -26 l41 -40 25 27 c49 53 82 103 68 103 -7 0
-26 12 -42 28 -25 23 -28 24 -18 5 6 -12 16 -25 21 -28 15 -9 13 -17 -24 -63
l-34 -43 -27 35 -27 35 20 25 c65 83 82 98 99 84 9 -7 24 -26 33 -41 l18 -28
20 28 c77 109 122 254 129 421 9 189 -31 371 -113 521 -27 50 -32 66 -22 72
10 6 8 11 -7 23 -11 8 -18 16 -15 18 3 3 26 20 53 38 26 18 47 34 47 36 0 1
-23 -4 -52 -12 -29 -7 -53 -12 -55 -10 -2 1 21 18 50 36 79 51 191 169 227
239 30 60 28 71 -10 51 -19 -10 -19 -10 0 22 56 96 64 278 18 437 l-13 43 -34
-47z m24 -137 c12 -151 -22 -268 -103 -352 l-47 -49 33 6 c17 4 32 4 32 1 0
-17 -62 -82 -116 -120 -86 -61 -150 -87 -364 -149 -279 -80 -439 -150 -568
-247 -71 -54 -67 -32 5 32 122 108 254 175 508 255 79 25 154 54 167 65 23 19
22 19 -37 0 -33 -10 -123 -37 -200 -60 -77 -23 -171 -55 -210 -72 -174 -78
-327 -211 -399 -347 -35 -66 -38 -70 -101 -95 -70 -28 -86 -27 -109 9 -15 22
-12 30 51 157 79 160 121 216 244 329 195 178 359 259 564 280 55 5 107 12
115 14 9 3 7 -2 -5 -11 -40 -31 -114 -63 -206 -89 -246 -68 -448 -166 -424
-204 4 -7 25 0 58 20 130 76 280 132 463 172 61 14 131 35 155 47 56 29 340
309 416 412 32 42 61 77 65 78 3 0 9 -37 13 -82z m-2811 -201 c103 -101 200
-188 226 -201 25 -13 108 -40 185 -60 148 -39 276 -94 399 -171 40 -25 78 -45
84 -45 46 0 -55 86 -160 138 -46 22 -148 61 -228 86 -80 26 -165 60 -189 75
l-43 28 98 1 c162 1 303 -43 447 -138 133 -88 162 -134 40 -64 -74 42 -221 96
-349 129 -105 26 -85 16 69 -35 164 -54 235 -91 347 -177 96 -75 189 -198 264
-350 51 -103 56 -119 45 -140 -17 -31 -38 -36 -86 -19 -80 28 -99 44 -129 102
-40 79 -159 203 -260 270 -100 67 -197 107 -404 169 -85 26 -186 62 -225 80
-61 30 -66 31 -40 10 45 -37 114 -67 290 -125 152 -50 284 -107 350 -153 56
-39 136 -110 157 -140 17 -23 8 -19 -43 22 -71 58 -235 145 -347 185 -40 14
-151 47 -245 72 -95 25 -200 59 -235 75 -59 29 -192 140 -192 161 0 6 -16 43
-35 82 -48 95 -71 222 -60 331 l7 80 41 -50 c22 -28 122 -130 221 -228z m1511
88 c132 -21 345 -87 345 -106 0 -5 -12 -16 -26 -25 -24 -16 -29 -16 -102 10
-172 59 -401 85 -593 67 -121 -11 -290 -49 -366 -82 l-45 -19 -29 25 -30 24
36 15 c109 46 289 91 420 106 98 11 269 4 390 -15z m-255 -188 c3 -58 9 -109
14 -114 5 -4 6 41 4 104 -3 75 -1 113 6 116 23 8 216 -13 308 -33 53 -11 142
-36 199 -55 66 -22 108 -31 118 -25 11 6 4 11 -28 21 l-42 12 25 26 26 25 67
-33 c130 -63 128 -59 31 -96 -115 -45 -155 -66 -273 -145 -55 -37 -111 -73
-125 -80 l-25 -13 28 36 c38 50 34 58 -8 17 -20 -19 -33 -41 -30 -48 3 -8 -3
-16 -12 -19 -32 -8 -111 -126 -191 -287 l-80 -160 -72 145 c-40 79 -92 171
-116 205 -60 85 -180 194 -285 259 -87 54 -243 125 -273 125 -32 0 -14 19 52
53 66 35 67 35 90 17 28 -23 28 -28 -5 -42 -26 -11 -27 -12 -6 -15 12 -2 72
12 133 31 62 20 147 43 189 52 69 14 242 34 266 29 6 -1 12 -49 15 -108z
m1219 -468 c-26 -20 -41 -23 -53 -12 -9 9 56 43 68 36 5 -3 -2 -14 -15 -24z
m-2386 2 c17 -11 25 -21 18 -25 -14 -9 -73 22 -66 34 9 14 16 12 48 -9z m306
-47 c77 -31 145 -61 151 -69 8 -10 -3 -14 -54 -19 -78 -9 -129 0 -152 25 -24
27 -15 31 46 19 29 -6 55 -8 57 -6 3 2 -21 10 -53 16 -32 7 -68 17 -81 23 -13
6 -25 8 -28 5 -7 -7 31 -75 58 -105 30 -33 8 -28 -36 8 -21 17 -41 29 -44 25
-7 -6 36 -48 135 -131 l71 -60 1 -68 c0 -105 38 -172 129 -225 38 -22 58 -27
111 -27 77 1 125 21 187 80 39 38 42 39 36 15 -9 -39 -38 -91 -77 -140 l-36
-45 30 -3 c36 -4 39 -23 9 -72 -33 -54 -70 -90 -118 -111 -53 -23 -58 -24 -64
-1 -4 13 -5 12 -6 -5 -1 -28 -10 -33 -82 -43 -73 -10 -178 4 -234 32 -22 11
-41 22 -43 23 -2 2 4 17 13 34 19 38 4 41 -22 5 -17 -22 -23 -25 -40 -16 -30
16 -115 112 -138 156 l-20 37 25 22 c14 12 39 32 55 44 23 17 27 25 17 31 -19
13 -42 97 -42 153 0 57 32 165 61 205 18 25 17 25 -8 -3 -59 -66 -84 -188 -60
-293 l16 -65 -32 -32 c-17 -18 -34 -33 -39 -33 -12 0 -38 101 -44 175 -7 82 6
162 40 245 13 33 22 60 19 60 -10 0 -64 -129 -74 -179 -25 -128 -27 -131 -28
-49 -1 93 28 188 84 272 38 58 130 146 152 146 7 0 76 -25 152 -56z m1975 -6
c109 -122 196 -334 196 -476 0 -145 -44 -245 -155 -358 -80 -81 -174 -135
-283 -160 -181 -43 -410 33 -512 171 -34 46 -55 85 -46 85 3 0 14 -16 26 -35
38 -62 170 -142 170 -104 0 6 -20 33 -44 60 -24 27 -57 70 -72 97 -49 84 -66
81 -31 -7 14 -34 24 -61 22 -61 -1 0 -22 26 -45 58 -31 40 -46 72 -51 106 -8
45 -6 51 16 72 14 13 25 29 25 36 0 7 11 -6 25 -30 14 -24 34 -57 46 -73 17
-25 18 -29 4 -29 -12 0 -13 -4 -6 -18 7 -14 18 -17 44 -14 l34 4 -53 85 c-60
95 -71 133 -25 84 71 -76 189 -95 281 -45 91 49 135 131 129 237 -4 51 -2 57
21 71 30 17 143 107 183 144 43 40 32 48 -14 9 -22 -19 -49 -37 -60 -40 -15
-4 -12 3 14 33 38 45 63 88 55 95 -4 5 -165 -31 -231 -51 -43 -12 -2 12 63 39
64 26 198 75 212 76 3 1 32 -27 62 -61z m166 -4 c25 -45 25 -46 6 -60 -31 -22
-42 -17 -69 29 l-26 42 22 17 c32 26 40 23 67 -28z m-2470 16 c19 -10 18 -12
-5 -47 -14 -19 -25 -40 -25 -44 0 -13 -24 -11 -44 4 -17 13 -17 15 3 55 22 43
38 50 71 32z m2154 -42 c-27 -49 -46 -58 -118 -57 -39 1 -84 5 -101 9 -33 9
-30 10 35 16 34 3 166 33 188 43 2 0 0 -5 -4 -11z m370 -105 c22 -63 20 -73
-9 -73 -19 0 -28 8 -39 33 -27 67 -28 73 -4 84 30 14 33 11 52 -44z m-2578 26
c3 -5 -2 -30 -12 -54 -13 -34 -22 -45 -39 -45 -37 0 -37 4 0 107 4 12 42 6 51
-8z m726 -47 c53 -24 132 -92 153 -133 l14 -27 -52 29 c-75 41 -160 67 -254
78 -78 8 -143 36 -143 61 0 27 216 21 282 -8z m1301 22 c21 -4 36 -12 34 -18
-5 -19 -89 -56 -127 -56 -61 0 -158 -29 -241 -70 l-80 -40 31 45 c75 110 227
164 383 139z m-2063 -101 c0 -5 -5 -25 -11 -45 -8 -31 -15 -38 -35 -38 -23 0
-24 2 -18 38 9 49 11 52 40 52 13 0 24 -3 24 -7z m2640 -19 c14 -36 12 -64 -4
-64 -19 0 -32 19 -41 58 -6 28 -4 32 14 32 14 0 25 -9 31 -26z m-1948 -21 c25
-23 23 -50 -7 -69 -23 -15 -27 -15 -50 0 -27 18 -31 36 -15 67 13 23 47 25 72
2z m1266 4 c22 -27 24 -62 3 -81 -23 -21 -65 -16 -75 10 -10 25 4 61 27 72 29
14 33 14 45 -1z m-1353 -111 c8 -36 63 -93 98 -102 63 -15 146 24 178 86 20
36 26 29 10 -12 -15 -39 -70 -85 -117 -98 -38 -11 -51 -10 -90 5 -63 24 -104
81 -103 144 0 48 10 39 24 -23z m1378 -49 c-41 -70 -141 -99 -212 -62 -38 19
-81 71 -81 97 0 17 4 15 23 -13 29 -44 82 -79 119 -79 72 0 142 61 156 137 l7
38 3 -43 c2 -29 -3 -54 -15 -75z m667 41 c0 -15 -4 -28 -10 -28 -5 0 -10 6
-10 14 0 7 -3 29 -6 47 -5 32 -5 33 10 15 9 -11 16 -32 16 -48z m-2670 40 c0
-7 -14 -33 -31 -58 l-30 -44 6 44 c9 65 12 70 35 70 11 0 20 -6 20 -12z m1359
-97 c9 -15 14 -14 166 48 5 2 4 -3 -3 -11 -7 -9 -40 -28 -75 -44 -46 -21 -56
-29 -41 -32 12 -2 39 4 59 12 77 33 46 3 -48 -45 l-58 -30 -17 31 c-9 16 -20
30 -24 30 -4 0 -18 -15 -30 -33 l-22 -34 -47 30 c-49 30 -89 67 -73 67 5 0 18
-7 28 -15 11 -8 31 -15 45 -15 24 0 24 0 5 15 -18 14 -17 15 8 5 25 -8 29 -6
55 35 l28 44 18 -21 c10 -12 22 -28 26 -37z m-199 19 c22 -11 40 -23 40 -25 0
-5 -79 32 -89 41 -11 10 14 2 49 -16z m-1131 -75 c20 -95 72 -192 138 -259 63
-64 168 -140 182 -132 4 3 34 -3 65 -14 118 -42 239 -35 341 19 28 14 53 27
58 29 4 2 7 -6 7 -18 l0 -21 33 22 c17 12 52 41 76 63 l43 41 -20 -41 c-60
-120 -237 -202 -412 -191 -130 8 -222 47 -355 149 l-30 23 17 -26 c17 -26 9
-49 -17 -49 -45 0 -157 184 -188 310 -13 49 -13 56 2 67 15 11 14 12 -1 13
-24 0 -23 23 2 45 11 10 22 27 26 38 9 27 17 10 33 -68z m1211 -61 c13 -12 12
-17 -6 -34 l-20 -20 -53 66 -52 66 58 -32 c32 -18 65 -39 73 -46z m230 16
c-29 -34 -50 -63 -48 -65 3 -3 22 8 44 23 59 42 69 47 59 31 -5 -8 -26 -35
-48 -62 l-39 -47 -34 52 c-18 29 -30 56 -26 59 4 3 27 14 51 23 24 9 54 24 65
32 34 23 30 17 -24 -46z m-437 -29 c-4 -18 -3 -22 7 -16 10 6 12 -3 6 -43 -6
-46 -49 -162 -60 -162 -3 0 4 25 14 55 12 35 15 57 9 61 -6 3 -12 4 -13 3 -2
-2 -17 -26 -35 -52 -18 -27 -34 -47 -36 -45 -2 2 5 30 16 62 23 71 22 64 4 68
-12 2 -7 14 20 52 19 27 37 58 41 69 6 20 7 20 20 -4 7 -13 10 -35 7 -48z
m334 -46 c23 -43 72 -192 65 -199 -3 -4 -25 34 -48 83 -23 49 -47 92 -52 95
-11 6 45 -139 84 -219 13 -28 24 -53 24 -57 0 -3 -14 -37 -32 -75 -17 -37 -41
-107 -54 -155 -35 -136 -39 -135 -52 14 -10 116 -33 262 -48 308 -4 12 -7 12
-16 -4 -10 -18 -7 -123 8 -271 3 -38 -4 -20 -31 72 l-35 122 30 50 c38 61 99
223 75 200 -8 -8 -33 -49 -55 -90 -22 -41 -40 -68 -40 -61 0 32 45 142 83 199
l42 63 18 -22 c10 -13 25 -36 34 -53z m-199 27 c30 -27 40 -41 33 -51 -12 -18
-25 -9 -61 45 -38 54 -29 56 28 6z m-2 -136 l-13 -38 -11 28 c-6 16 -20 54
-32 84 l-21 55 45 -45 45 -45 -13 -39z m344 54 c-11 -29 -27 -62 -35 -73 -13
-18 -14 -17 -21 18 -6 33 -3 40 32 76 21 21 39 37 41 35 2 -2 -6 -27 -17 -56z
m-400 -128 c11 -41 13 -105 4 -115 -4 -3 -30 14 -59 39 l-53 45 31 56 30 56
18 -22 c10 -13 23 -39 29 -59z m495 3 l18 -34 -57 -53 -56 -54 -1 36 c-2 71 3
105 23 144 l20 40 17 -23 c10 -13 26 -38 36 -56z m991 -2 c-8 -16 -23 -36 -33
-44 -17 -13 -17 -13 -2 11 9 14 22 35 30 47 19 31 23 21 5 -14z m-2461 -141
l49 -53 -32 -32 c-31 -31 -32 -31 -47 -12 -47 60 -48 62 -29 92 l18 28 -27
-24 c-40 -36 -57 -14 -21 28 14 18 29 31 33 29 3 -2 28 -27 56 -56z m948 -51
c67 -64 114 -149 172 -313 21 -60 41 -108 46 -108 7 0 33 62 59 145 36 114
105 214 203 295 l70 58 74 -50 c40 -28 73 -54 73 -58 0 -4 -7 -13 -16 -20 -8
-8 -20 -22 -25 -32 -9 -17 -8 -18 8 -10 10 6 29 21 42 35 l23 25 42 -17 c98
-43 212 -51 351 -26 43 8 81 12 83 10 5 -5 -72 -49 -143 -81 -33 -15 -54 -29
-47 -32 15 -5 168 66 214 99 16 12 32 19 35 16 8 -9 -76 -67 -144 -99 -33 -16
-132 -47 -220 -69 -252 -63 -372 -106 -458 -165 l-50 -35 60 56 c106 100 201
147 412 204 59 16 126 36 148 44 l40 16 -80 3 c-146 6 -210 -6 -310 -57 -164
-83 -304 -220 -385 -376 l-41 -79 -40 80 c-82 163 -317 370 -472 415 -41 12
-90 15 -198 13 -79 -2 -133 -6 -119 -10 14 -4 86 -21 160 -38 209 -48 349
-118 480 -240 l55 -51 -50 34 c-112 77 -235 125 -475 183 -182 44 -271 77
-347 128 -20 14 -35 26 -33 26 3 0 50 -23 104 -50 55 -28 109 -50 120 -50 12
0 -20 20 -69 44 -50 24 -98 53 -108 63 -16 19 -15 19 51 2 119 -31 312 -20
413 25 10 4 31 -6 59 -28 56 -44 65 -37 17 12 l-36 37 45 24 c24 13 61 37 82
52 42 31 37 33 125 -50z m-308 -146 l40 -14 -50 5 c-27 3 -77 9 -110 13 l-60
9 70 0 c39 0 88 -6 110 -13z m1225 5 c-91 -15 -154 -21 -148 -14 13 12 72 22
133 22 l60 0 -45 -8z"></path>
<path d="M4052 4587 c-7 -17 -48 -72 -92 -122 -44 -49 -107 -122 -139 -162
-32 -39 -62 -69 -67 -65 -4 4 -4 1 0 -6 4 -7 2 -19 -4 -27 -10 -12 -10 -15 0
-15 33 0 78 45 146 145 41 61 91 133 111 160 l35 50 -7 -35 c-4 -19 -20 -70
-36 -113 -15 -42 -24 -75 -19 -72 13 8 45 98 70 198 22 91 23 122 2 64z"></path>
<path d="M3903 4241 c-34 -31 -59 -62 -55 -68 11 -15 51 -9 70 12 16 18 16 18
-10 2 -45 -28 -43 -20 11 39 42 46 62 76 49 74 -2 -1 -31 -27 -65 -59z"></path>
<path d="M3680 4190 c-25 -16 -42 -30 -37 -30 10 0 87 49 87 55 0 7 0 7 -50
-25z"></path>
<path d="M3608 4154 c-3 -3 -70 -18 -149 -35 -79 -16 -182 -41 -228 -56 -92
-29 -318 -139 -299 -145 6 -2 59 20 117 49 83 42 141 63 266 94 159 40 315 87
315 95 0 6 -16 5 -22 -2z"></path>
<path d="M3720 4078 c-25 -11 -39 -22 -33 -25 12 -4 83 33 83 43 0 5 3 6 -50
-18z"></path>
<path d="M3298 4003 c7 -3 16 -2 19 1 4 3 -2 6 -13 5 -11 0 -14 -3 -6 -6z"></path>
<path d="M3194 3976 c-69 -27 -177 -86 -170 -93 3 -3 31 9 63 27 32 17 90 45
128 61 83 34 66 38 -21 5z"></path>
<path d="M2830 3764 l-31 -36 -23 21 c-26 25 -48 28 -39 6 3 -9 11 -14 17 -12
6 3 18 -2 27 -10 16 -13 14 -20 -18 -81 -32 -61 -39 -69 -85 -86 -28 -11 -46
-22 -40 -24 7 -2 33 4 58 14 42 16 49 24 86 98 22 45 51 96 65 114 32 43 23
41 -17 -4z"></path>
<path d="M1050 4604 c0 -28 241 -316 308 -368 20 -16 74 -46 118 -67 78 -36
141 -58 369 -128 88 -27 164 -64 273 -132 17 -12 32 -17 32 -12 0 14 -150 110
-225 144 -38 17 -138 48 -221 69 -163 41 -233 71 -336 147 -71 52 -241 238
-285 311 -23 39 -33 50 -33 36z"></path>
<path d="M1076 4510 c22 -90 143 -285 199 -320 58 -36 57 -21 -3 38 -63 60
-137 167 -178 255 -13 29 -22 41 -18 27z"></path>
<path d="M1151 4240 c20 -32 109 -100 129 -99 10 0 6 6 -10 17 -14 9 -50 37
-80 62 -40 32 -51 37 -39 20z"></path>
<path d="M1698 4203 c7 -3 16 -2 19 1 4 3 -2 6 -13 5 -11 0 -14 -3 -6 -6z"></path>
<path d="M1873 3969 c39 -23 211 -98 192 -83 -23 19 -148 78 -185 88 -22 6
-23 5 -7 -5z"></path>
<path d="M2226 3779 c34 -35 82 -96 107 -135 36 -57 53 -74 86 -88 23 -9 49
-16 59 -15 9 0 -5 9 -33 19 l-50 20 3 47 c2 27 -1 61 -8 77 -15 41 -21 28 -8
-22 6 -23 7 -49 4 -59 -6 -14 -12 -9 -35 25 -39 59 -138 170 -164 183 -12 7 5
-17 39 -52z"></path>
<path d="M2340 4365 c-72 -15 -120 -31 -120 -41 0 -3 16 -27 35 -53 47 -65
103 -165 131 -236 18 -45 23 -51 18 -25 -8 48 -77 193 -119 250 -19 26 -35 52
-35 57 0 6 33 17 73 26 122 28 109 34 131 -72 11 -52 22 -89 24 -82 4 11 -3
55 -24 164 -6 31 -15 32 -114 12z"></path>
<path d="M2656 4348 c-3 -17 -8 -63 -11 -102 -4 -69 -3 -68 12 27 14 82 19 97
35 97 10 0 18 -7 18 -17 0 -14 2 -15 9 -5 6 11 21 10 79 -3 40 -9 72 -19 72
-21 0 -3 -22 -37 -50 -77 -55 -82 -100 -172 -100 -202 1 -11 16 12 34 50 18
39 58 108 90 154 31 46 55 86 53 88 -7 6 -182 43 -208 43 -22 0 -28 -6 -33
-32z"></path>
<path d="M2113 4289 c48 -39 124 -119 155 -164 14 -19 27 -33 29 -31 16 15
-93 148 -161 198 -52 38 -70 36 -23 -3z"></path>
<path d="M2964 4278 c-52 -44 -122 -126 -143 -165 -23 -44 4 -21 59 49 30 39
75 87 100 106 66 53 65 52 49 52 -8 0 -38 -19 -65 -42z"></path>
<path d="M3047 4273 c-14 -17 -12 -18 44 -20 32 -1 59 0 59 2 0 7 -58 35 -73
35 -8 0 -21 -8 -30 -17z"></path>
<path d="M2017 4259 l-22 -20 35 7 c44 8 58 20 31 27 -13 3 -30 -3 -44 -14z"></path>
<path d="M2451 4014 c19 -80 37 -138 38 -120 1 25 -28 139 -39 150 -5 4 -4 -9
1 -30z"></path>
<path d="M2697 3989 c-5 -20 -5 -20 16 -3 12 11 24 20 26 21 2 2 -5 3 -16 3
-13 0 -23 -8 -26 -21z"></path>
<path d="M2640 3950 c-7 -28 -10 -53 -8 -55 3 -3 10 18 16 47 7 28 11 53 8 55
-2 2 -9 -19 -16 -47z"></path>
<path d="M2531 3758 c-33 -39 -34 -41 -10 -34 29 9 45 9 82 0 37 -9 35 11 -2
31 -16 8 -31 21 -33 29 -2 10 -15 1 -37 -26z"></path>
<path d="M1490 3205 c0 -3 8 -17 17 -32 17 -25 16 -26 -12 -49 -33 -27 -22
-33 13 -8 13 9 30 13 38 10 8 -3 13 -2 9 3 -3 5 9 21 27 35 38 30 30 34 -14 9
-29 -18 -30 -18 -54 10 -13 15 -24 25 -24 22z"></path>
<path d="M1684 3064 c-19 -41 -34 -78 -34 -82 0 -12 45 70 63 116 28 70 8 47
-29 -34z"></path>
<path d="M1859 2997 c5 -5 19 -7 32 -5 20 3 19 5 -9 9 -20 3 -29 2 -23 -4z"></path>
<path d="M1670 2936 c0 -2 7 -7 16 -10 8 -3 12 -2 9 4 -6 10 -25 14 -25 6z"></path>
<path d="M3615 3615 c45 -87 58 -149 53 -252 -3 -52 -4 -92 -2 -90 2 1 7 30
12 62 17 103 -16 241 -72 310 -9 11 -5 -2 9 -30z"></path>
<path d="M3745 3560 c18 -85 16 -148 -9 -244 -14 -54 -27 -101 -30 -103 -2 -2
-21 6 -42 17 l-39 22 33 -29 c17 -16 32 -36 32 -44 0 -8 -15 -41 -33 -74 -25
-46 -37 -60 -53 -58 -13 1 -36 -13 -59 -37 -30 -30 -42 -37 -52 -29 -18 15
-17 -2 2 -27 11 -15 15 -16 16 -4 1 22 89 97 89 77 0 -25 -113 -113 -167 -130
-49 -16 -104 -22 -181 -19 -44 2 -43 0 -68 71 -2 8 -7 12 -10 9 -2 -3 0 -18 6
-33 6 -15 9 -30 7 -32 -3 -2 -29 5 -58 17 -72 27 -75 25 -9 -10 161 -84 347
-54 476 77 70 70 116 144 152 245 22 62 26 89 26 178 -1 75 -5 116 -18 145 -9
22 -14 29 -11 15z"></path>
<path d="M3530 3176 c0 -9 110 -80 116 -74 3 3 -12 16 -33 29 -21 12 -48 29
-60 37 -13 8 -23 12 -23 8z"></path>
<path d="M3401 3069 c11 -30 25 -58 31 -64 5 -5 0 14 -11 44 -11 30 -25 59
-30 64 -6 6 -1 -14 10 -44z"></path>
<path d="M3230 3000 c-18 -12 -2 -12 25 0 13 6 15 9 5 9 -8 0 -22 -4 -30 -9z"></path>
<path d="M2190 2782 c0 -5 34 -44 75 -87 41 -43 75 -73 75 -67 0 12 -37 60
-94 120 -39 41 -56 51 -56 34z"></path>
<path d="M2844 2699 c-72 -84 -93 -114 -77 -108 11 5 173 176 173 184 0 3 -6
5 -13 5 -8 0 -45 -36 -83 -81z"></path>
<path d="M1134 2945 c3 -11 12 -48 22 -83 9 -34 15 -64 13 -65 -23 -16 -239
-211 -236 -213 2 -2 28 4 58 14 30 11 68 22 84 26 30 7 30 7 -14 -38 -28 -28
-64 -52 -100 -66 -70 -26 -131 -59 -111 -59 15 -1 89 15 123 25 17 5 17 4 -1
-33 -58 -113 -112 -376 -112 -543 0 -118 6 -120 62 -27 27 46 71 112 98 148
26 35 47 66 45 68 -2 2 -21 -9 -42 -25 -35 -25 -55 -47 -98 -109 -36 -53 25
163 80 281 46 101 101 177 194 268 l80 80 28 -24 c16 -14 32 -28 37 -32 5 -4
-13 -32 -41 -62 -65 -71 -120 -179 -177 -346 -45 -132 -45 -135 -25 -138 39
-6 62 31 90 149 33 133 91 255 155 324 l45 50 -44 -65 c-60 -88 -82 -133 -114
-237 -27 -86 -28 -94 -28 -333 0 -289 6 -321 100 -565 4 -11 -18 14 -48 55
-97 130 -170 289 -192 417 -6 40 -4 47 49 119 31 42 56 81 56 86 0 22 -65 -28
-116 -90 -57 -69 -140 -220 -132 -242 2 -7 24 15 49 48 l45 61 43 -104 c48
-117 125 -253 197 -347 55 -72 153 -178 165 -178 4 0 3 16 -3 36 -5 20 -8 37
-6 39 2 2 44 -51 93 -117 50 -66 124 -152 166 -192 78 -73 181 -138 196 -122
4 5 2 11 -4 13 -18 7 -16 40 3 47 13 5 49 -11 92 -39 1 -1 -7 -24 -19 -51 -28
-63 -31 -190 -6 -247 20 -47 76 -119 86 -113 4 3 13 29 20 58 12 56 50 119 51
85 0 -25 35 -91 78 -148 l36 -48 40 65 c39 65 40 65 56 45 l16 -22 28 30 c15
16 38 50 50 75 l22 45 73 -59 c40 -33 76 -60 79 -60 4 0 36 23 71 50 35 28 67
50 72 50 4 0 11 -10 15 -22 3 -12 40 -56 81 -97 81 -81 98 -83 89 -7 -7 59 12
29 21 -34 l8 -55 30 37 c17 21 44 65 61 100 l32 62 16 -32 c9 -17 19 -52 23
-77 3 -27 10 -44 17 -42 6 2 30 27 53 55 54 66 70 136 53 225 -6 34 -12 68
-13 75 -1 7 27 23 68 37 131 46 195 105 339 308 38 53 71 95 74 93 2 -3 0 -19
-6 -36 -10 -27 -9 -29 7 -21 10 6 58 52 108 104 132 139 210 264 268 432 16
44 31 83 34 87 3 4 31 -22 61 -57 30 -35 57 -61 59 -59 9 9 -83 178 -139 253
-62 83 -120 129 -120 94 0 -10 23 -47 51 -83 l51 -65 -6 -63 c-13 -127 -103
-320 -199 -427 l-46 -50 34 85 c56 142 69 228 62 430 -3 96 -11 203 -16 237
-15 82 -47 183 -66 208 -12 15 -11 9 4 -30 24 -64 46 -166 61 -281 10 -73 10
-109 0 -180 l-13 -89 -12 70 c-7 39 -31 127 -54 196 -22 69 -41 129 -41 133 0
4 10 5 23 1 19 -5 17 -2 -10 22 -18 15 -37 41 -43 56 -13 36 -13 50 0 42 23
-14 7 41 -37 131 l-48 95 37 35 c21 19 41 34 46 34 15 0 102 -155 126 -227 27
-80 51 -191 65 -298 l8 -70 2 65 c2 143 -42 299 -126 443 -48 84 -50 88 -18
52 65 -73 133 -236 169 -406 6 -28 48 -62 70 -57 11 2 6 28 -19 108 -59 190
-98 267 -192 377 l-44 52 33 31 33 30 79 -82 c107 -111 148 -169 196 -272 54
-113 116 -354 69 -264 -20 38 -69 98 -91 109 -19 10 -19 10 -2 -23 9 -18 25
-44 34 -58 10 -14 40 -65 68 -113 l51 -89 7 38 c15 82 -19 348 -62 484 -26 81
-28 94 -16 87 19 -12 112 -35 107 -27 -3 5 -56 48 -118 96 -151 117 -154 121
-64 78 43 -20 80 -34 83 -32 5 6 -104 95 -192 156 l-61 43 22 62 c13 34 26 82
30 107 7 44 7 44 -32 -31 -76 -146 -192 -278 -338 -387 -131 -97 -364 -192
-740 -299 -77 -23 -174 -50 -215 -62 -41 -12 -79 -22 -85 -23 -5 0 -94 22
-196 50 -398 108 -679 219 -843 332 -137 95 -276 258 -363 428 -18 37 -32 58
-29 47z m3 -256 c-22 -11 -41 -18 -44 -16 -6 7 48 36 67 36 8 0 -2 -9 -23 -20z
m89 -33 l22 -34 -64 -63 c-82 -82 -163 -194 -219 -305 -39 -78 -44 -84 -39
-49 18 129 57 228 124 322 42 57 139 163 150 163 3 -1 15 -16 26 -34z m2714
-8 c0 -5 -7 -8 -15 -8 -17 0 -18 2 -9 25 5 13 8 14 15 3 5 -7 9 -16 9 -20z
m15 -47 c53 -24 139 -120 175 -196 22 -47 60 -185 60 -220 0 -4 -16 24 -36 62
-47 88 -128 197 -222 295 -72 75 -74 78 -46 78 16 0 47 -9 69 -19z m-2487
-168 c2 -1 -12 -30 -31 -65 -37 -67 -62 -136 -54 -145 3 -3 11 14 18 38 l13
42 12 -29 c7 -16 15 -60 19 -98 7 -71 22 -113 49 -135 16 -14 14 -102 -6 -247
-31 -229 105 -557 356 -858 36 -43 66 -80 66 -82 0 -2 -7 -1 -16 3 -8 3 -26 0
-39 -7 -20 -11 -28 -10 -54 9 -72 51 -198 230 -249 354 -72 172 -120 399 -129
605 -4 78 -9 128 -14 120 -25 -38 1 -259 60 -523 16 -71 32 -148 36 -170 l7
-40 -47 45 c-53 52 -116 171 -171 325 -53 150 -68 238 -68 405 0 130 3 154 28
235 30 99 71 183 118 239 l31 37 31 -28 c17 -15 32 -29 34 -30z m116 -60 c44
-27 44 -27 30 -55 -32 -61 -18 -298 17 -298 5 0 9 -6 9 -13 0 -7 14 -26 30
-42 30 -28 30 -30 30 -132 0 -206 59 -394 214 -682 31 -58 54 -106 52 -108 -7
-8 -137 156 -171 218 -148 262 -234 509 -241 692 -3 85 -7 101 -24 115 -27 22
-39 78 -40 180 0 82 18 152 39 152 6 0 30 -12 55 -27z m2040 -36 c53 -113 33
-243 -42 -277 -29 -12 -33 -18 -29 -45 17 -117 -75 -448 -190 -680 -48 -96
-135 -224 -185 -271 -25 -24 -17 -3 54 136 119 232 168 416 170 635 0 55 4
105 8 110 4 6 11 21 15 35 6 21 3 19 -18 -10 -31 -44 -68 -65 -119 -65 -45 0
-68 22 -68 65 0 23 6 29 41 39 29 9 67 37 130 99 99 97 120 135 98 187 l-13
30 -6 -50 c-6 -53 -19 -84 -44 -105 -14 -11 -16 -5 -16 56 l0 69 42 23 c23 12
45 19 50 14 4 -4 11 -55 14 -112 5 -82 2 -115 -10 -147 -17 -48 -7 -59 14 -15
20 42 23 149 7 225 l-14 69 36 23 c20 13 38 24 41 24 3 0 18 -28 34 -62z
m-1939 -19 c26 -12 32 -23 16 -32 -5 -3 -14 -29 -21 -57 l-12 -50 -24 22 c-26
24 -31 60 -14 103 11 29 18 31 55 14z m125 -57 l64 -29 -2 -84 c-2 -57 2 -91
12 -110 l14 -26 -36 15 c-78 33 -111 73 -113 140 l0 28 -10 -25 c-6 -14 -8
-36 -6 -50 l5 -25 -19 24 c-30 37 -19 172 14 171 7 0 41 -14 77 -29z m1580
-29 c0 -62 -38 -140 -82 -168 -32 -20 -121 -54 -142 -54 -7 0 -10 32 -9 92 l2
91 103 42 c57 24 109 43 116 44 8 1 12 -15 12 -47z m-1272 -161 c-6 -90 -28
-116 -90 -108 -78 10 -138 88 -138 179 0 81 -2 80 122 39 l110 -36 -4 -74z
m-501 27 c-2 -18 -4 -4 -4 32 0 36 2 50 4 33 2 -18 2 -48 0 -65z m1521 8 c-5
-81 -23 -120 -63 -138 -58 -26 -102 17 -111 109 l-6 58 73 21 c117 34 112 36
107 -50z m558 9 c-16 -24 -15 -28 28 -112 47 -96 76 -180 100 -295 15 -72 15
-75 -10 -143 -43 -121 -111 -249 -160 -304 -25 -28 -49 -50 -51 -47 -2 2 5 35
15 73 30 103 60 246 77 363 17 121 20 286 5 295 -6 4 -10 -28 -10 -88 0 -402
-111 -734 -313 -938 -38 -38 -156 -109 -182 -109 -4 0 23 32 59 71 69 75 193
255 256 372 48 89 77 161 101 252 24 88 45 367 31 416 l-10 34 -1 -45 c-1 -36
-7 -49 -28 -64 -26 -19 -26 -19 -18 0 5 10 9 53 11 94 2 72 3 77 37 111 23 23
41 54 49 83 11 41 14 45 22 27 6 -14 4 -28 -8 -46z m-1883 -94 c45 -22 47 -24
47 -66 0 -49 -11 -56 -69 -44 -90 20 -178 149 -157 232 6 26 6 26 69 -36 35
-35 84 -73 110 -86z m389 8 c10 -140 23 -169 135 -311 29 -37 53 -69 53 -72 0
-11 -41 -6 -68 8 -43 23 -81 69 -106 129 l-23 57 -23 -25 c-47 -51 -173 -25
-237 48 -32 37 -62 111 -49 124 3 4 31 -5 62 -20 57 -28 112 -34 146 -16 28
15 48 69 48 133 l0 54 28 -7 c26 -7 27 -10 34 -102z m718 64 l1 -28 14 25 c14
24 14 22 15 -33 0 -51 4 -62 29 -88 39 -38 96 -40 139 -4 17 14 41 25 55 25
24 0 25 -1 15 -42 -20 -91 -84 -148 -186 -164 -39 -6 -44 -4 -77 30 l-35 37 0
-39 c0 -43 -36 -102 -86 -141 -28 -22 -71 -37 -80 -28 -3 2 30 51 73 107 l78
103 0 91 c0 67 -5 99 -17 123 l-18 31 28 10 c43 16 52 14 52 -15z m-680 3 c0
7 30 3 82 -11 98 -26 96 -22 97 -176 1 -122 19 -169 96 -254 l45 -50 45 50
c25 28 57 73 71 102 24 48 25 59 22 176 l-3 125 58 16 c32 9 62 14 67 11 5 -3
14 -29 21 -58 22 -100 -20 -208 -137 -352 -31 -38 -77 -96 -102 -128 l-46 -58
-21 28 c-11 15 -51 64 -89 108 -131 152 -197 271 -215 385 -14 85 -14 110 -1
90 5 -8 10 -10 10 -4z m276 -91 c43 -45 60 -70 28 -44 -13 11 -14 9 -8 -17 15
-60 23 -71 23 -32 1 53 85 158 108 134 4 -4 8 -56 8 -114 0 -102 -2 -110 -33
-167 -18 -33 -44 -73 -59 -89 l-25 -30 -29 35 c-15 19 -41 57 -56 84 -25 45
-28 62 -31 168 -5 138 2 145 74 72z m-691 -125 c35 0 35 0 35 -43 0 -194 79
-483 154 -565 24 -27 87 -62 111 -62 9 0 15 -9 15 -24 0 -35 26 -142 55 -228
31 -91 31 -92 -2 -75 -16 8 -33 12 -39 10 -20 -7 -98 61 -141 123 -50 72 -137
245 -188 374 -68 170 -96 284 -102 408 l-6 112 36 -15 c20 -8 52 -15 72 -15z
m1555 -76 c-27 -242 -94 -471 -191 -649 -59 -109 -141 -225 -159 -225 -5 0 2
24 15 53 21 49 85 223 85 233 0 2 -4 4 -9 4 -5 0 -12 -12 -16 -28 -3 -15 -25
-75 -47 -134 -22 -58 -41 -115 -42 -125 -2 -12 -23 -26 -60 -41 -32 -13 -60
-22 -61 -20 -2 2 12 45 31 97 19 51 40 128 46 171 11 75 13 78 41 84 84 17
132 85 173 243 20 78 27 132 31 264 l6 167 32 -14 c33 -13 71 -9 112 14 10 6
19 9 21 8 1 -2 -2 -48 -8 -102z m-1391 -24 c5 0 11 -21 15 -47 10 -72 44 -131
116 -203 36 -36 74 -77 85 -90 l20 -23 -41 22 c-151 84 -266 230 -289 369 l-7
43 47 -35 c25 -20 50 -36 54 -36z m1198 10 c-7 -62 -31 -121 -73 -177 -20 -26
-137 -130 -216 -192 -38 -29 -15 12 57 101 83 103 115 161 115 211 0 28 5 36
33 49 17 9 43 27 57 41 14 14 27 25 29 26 2 1 1 -26 -2 -59z m-936 -115 c44
-48 93 -80 108 -71 12 8 9 -17 -19 -132 l-25 -102 -123 127 c-121 125 -172
198 -172 249 0 19 3 20 50 10 40 -8 56 -7 82 6 33 15 33 15 45 -13 6 -15 31
-49 54 -74z m757 79 l55 6 -7 -32 c-9 -47 -45 -102 -128 -198 -41 -47 -84
-103 -98 -124 l-23 -39 -29 114 c-26 106 -27 115 -11 124 36 21 110 96 128
129 16 30 22 33 38 24 12 -6 43 -8 75 -4z m580 -34 c-1 -16 -6 -28 -12 -27 -5
1 -11 -11 -11 -28 -2 -38 -52 -155 -94 -220 -38 -58 -32 -27 10 56 16 31 35
85 43 120 25 116 66 179 64 99z m-1895 -472 c38 -65 84 -124 135 -175 60 -60
66 -68 25 -35 -88 73 -149 147 -201 249 -62 121 -86 182 -117 302 -42 158 -27
135 38 -59 47 -140 76 -209 120 -282z m282 331 c22 -40 104 -108 197 -163 46
-27 102 -62 126 -77 l42 -29 1 38 c1 24 6 10 14 -43 l12 -80 0 150 c0 147 15
244 38 248 14 2 101 -109 125 -159 11 -24 21 -61 21 -81 l1 -38 8 46 c10 57
36 108 95 182 45 56 65 70 65 43 0 -7 10 -42 21 -77 18 -51 22 -90 23 -187 1
-86 3 -112 9 -90 11 42 49 82 112 118 28 16 92 66 143 110 50 45 92 76 92 69
0 -24 -33 -144 -52 -189 -18 -44 -18 -44 0 -21 24 29 51 115 62 190 4 32 18
73 29 92 l22 34 -7 -55 c-11 -101 -43 -231 -66 -273 -25 -45 -76 -78 -108 -70
-21 6 -30 31 -30 93 0 33 -3 41 -10 30 -5 -8 -10 -28 -10 -45 0 -44 -27 -124
-56 -168 -15 -23 -58 -59 -107 -91 -128 -82 -229 -210 -226 -286 1 -21 2 -20
9 7 15 65 115 176 205 230 88 53 143 100 166 141 l20 37 -6 -50 c-4 -27 -18
-83 -31 -124 -44 -131 -73 -182 -142 -246 -57 -54 -65 -66 -69 -107 -5 -40
-11 -50 -52 -80 -100 -76 -89 -75 -164 -18 -53 40 -67 56 -67 77 0 36 -32 79
-94 128 -33 26 -63 62 -83 100 -33 63 -77 192 -88 260 l-7 40 28 -38 c15 -21
72 -68 126 -104 54 -36 124 -93 155 -127 67 -74 97 -94 67 -48 -44 71 -121
147 -201 199 -46 30 -95 70 -109 89 -29 37 -64 139 -65 187 0 18 -4 41 -9 52
-5 14 -10 -5 -15 -63 -5 -53 -12 -85 -20 -89 -25 -9 -74 27 -102 74 -28 48
-73 198 -73 243 0 14 -7 38 -15 54 -8 15 -15 31 -15 35 0 9 48 -50 65 -80z
m1615 -69 c-12 -40 -49 -126 -82 -192 -50 -98 -76 -136 -140 -204 -44 -46
-107 -107 -141 -136 -41 -34 -18 -6 68 82 110 114 138 150 182 232 51 97 123
264 123 288 0 8 3 11 6 8 3 -4 -4 -39 -16 -78z m-166 -265 c-21 -30 -39 -53
-41 -51 -5 4 66 106 73 106 2 0 -12 -25 -32 -55z m-1493 -262 c13 -16 12 -17
-3 -4 -17 13 -22 21 -14 21 2 0 10 -8 17 -17z m297 -153 c37 -23 38 -27 14
-58 -16 -21 -20 -22 -31 -8 -14 17 -66 22 -75 7 -3 -4 6 -6 19 -3 29 5 58 -15
51 -35 -3 -8 -1 -11 4 -8 12 7 12 3 4 -19 -4 -9 -18 -16 -34 -16 -16 0 -32 -4
-35 -10 -15 -24 -25 -6 -26 48 -1 58 -7 52 -23 -20 -6 -26 -7 -26 -34 -12 -34
18 -37 17 -56 -2 -10 -9 -16 -31 -15 -57 l1 -42 10 43 c10 45 34 56 58 27 10
-12 8 -22 -13 -53 -14 -20 -31 -50 -38 -67 l-11 -30 -13 35 c-19 50 -18 155 1
196 9 19 30 44 47 56 28 20 32 20 57 6 26 -15 27 -14 37 13 14 36 52 39 101 9z
m790 -5 c18 -23 23 -24 47 -13 25 11 30 10 56 -19 47 -54 61 -138 38 -245
l-12 -53 -24 55 c-13 30 -33 65 -45 77 -21 23 -18 37 12 53 25 13 41 -14 50
-90 l7 -55 2 58 c1 55 -19 127 -36 127 -4 0 -20 -7 -35 -14 -27 -14 -28 -14
-29 12 0 15 -4 36 -8 47 -6 13 -8 1 -7 -37 0 -31 -2 -59 -5 -63 -4 -3 -19 6
-34 20 -21 21 -33 26 -61 23 -36 -4 -41 7 -11 26 12 8 23 7 39 -3 21 -13 22
-13 9 2 -15 19 -46 23 -56 7 -13 -21 -25 -9 -14 13 11 20 11 21 -4 8 -11 -8
-17 -9 -17 -2 0 6 -11 13 -25 17 l-25 6 25 19 c70 56 131 64 163 24z m-681
-92 c14 -35 17 -155 4 -188 -6 -16 -10 -10 -15 27 -4 26 -16 57 -27 70 l-20
23 16 -32 c8 -18 15 -54 14 -80 -1 -46 -1 -47 -11 -18 -6 17 -15 32 -19 35
-38 25 -38 200 0 200 5 0 17 -29 26 -65 10 -35 22 -62 26 -59 11 7 1 48 -22
96 -11 21 -19 40 -19 44 0 15 34 -24 47 -53z m529 11 c12 -18 15 -36 10 -67
-10 -60 -28 -117 -36 -112 -4 2 -7 -9 -8 -26 -1 -40 -12 -51 -13 -13 -1 16 -5
40 -10 54 -6 18 -7 11 -4 -25 l5 -50 -17 30 c-24 41 -25 170 -2 206 22 33 55
34 75 3z m114 -83 c36 -67 -19 -199 -66 -160 -15 12 -21 159 -7 172 14 15 63
7 73 -12z m-769 -18 c5 -15 9 -50 7 -77 -3 -47 -5 -51 -30 -54 -36 -4 -58 30
-58 88 0 51 13 70 47 70 16 0 27 -8 34 -27z"></path>
<path d="M1282 2223 c-37 -88 -56 -233 -32 -248 6 -4 10 13 10 44 0 52 21 166
40 215 18 49 4 39 -18 -11z"></path>
<path d="M1380 2115 c-7 -14 -18 -25 -24 -24 -25 3 -37 -2 -31 -12 4 -6 13 -8
21 -5 17 7 18 10 -7 -60 -50 -145 -84 -334 -60 -334 5 0 11 -8 13 -17 3 -10 5
0 6 22 2 82 33 192 84 297 47 99 50 110 38 133 -17 31 -23 31 -40 0z"></path>
<path d="M1260 1917 c4 -41 5 -41 8 -8 2 18 0 37 -5 42 -5 5 -6 -11 -3 -34z"></path>
<path d="M1355 1765 c3 -44 9 -92 11 -108 4 -19 1 -29 -10 -33 -9 -3 -16 -11
-16 -16 0 -6 6 -5 15 2 12 10 15 7 21 -17 28 -127 43 -173 55 -173 5 0 5 10
-1 23 -18 43 -39 144 -55 267 -19 142 -30 174 -20 55z"></path>
<path d="M3725 1594 c-4 -16 -8 -34 -10 -41 -2 -7 0 -15 5 -18 4 -3 11 13 15
36 8 46 -1 66 -10 23z"></path>
<path d="M3705 1496 c-3 -9 -7 -23 -10 -31 -2 -8 -1 -15 4 -15 10 0 25 50 17
58 -3 2 -8 -3 -11 -12z"></path>
<path d="M1795 1595 c4 -16 13 -37 21 -45 20 -20 17 -1 -7 40 l-20 35 6 -30z"></path>
<path d="M1840 1501 c0 -11 4 -22 9 -25 12 -8 34 21 26 34 -11 17 -35 11 -35
-9z"></path>
<path d="M1880 1386 c0 -25 12 -46 26 -46 20 0 29 27 14 45 -16 19 -40 19 -40
1z"></path>
<path d="M1980 1244 c0 -43 71 -196 132 -287 49 -73 62 -69 15 4 -43 67 -88
158 -112 224 -19 51 -35 78 -35 59z"></path>
<path d="M3246 1584 c-23 -50 -15 -52 17 -4 16 25 21 40 13 40 -7 0 -20 -16
-30 -36z"></path>
<path d="M3216 1481 c-3 -22 -15 -56 -27 -75 -24 -42 -9 -58 19 -19 12 18 20
48 21 81 2 62 -4 68 -13 13z"></path>
<path d="M2986 978 l-17 -33 20 24 c18 20 27 41 18 41 -1 0 -11 -15 -21 -32z"></path>
<path d="M1985 1501 c3 -24 12 -55 20 -70 19 -34 18 -28 -5 49 -18 56 -20 59
-15 21z"></path>
<path d="M2637 1278 l-76 -83 -72 73 c-40 40 -74 70 -77 68 -6 -7 65 -99 115
-151 l37 -38 33 39 c51 59 126 165 120 170 -2 2 -38 -33 -80 -78z"></path>
<path d="M2681 1214 c0 -11 3 -14 6 -6 3 7 2 16 -1 19 -3 4 -6 -2 -5 -13z"></path>
<path d="M2657 1128 c-19 -67 -78 -158 -101 -158 -8 0 -28 16 -44 35 -29 32
-33 45 -45 150 -2 17 -5 -2 -6 -40 -1 -59 3 -76 23 -105 30 -45 71 -68 94 -54
32 20 81 105 92 159 16 79 8 87 -13 13z"></path>
<path d="M2761 972 c-1 -29 -27 -80 -55 -111 -14 -16 -16 -22 -6 -19 26 8 72
93 67 124 -3 23 -4 24 -6 6z"></path>
<path d="M2321 938 c8 -31 74 -108 91 -108 5 0 -8 16 -28 36 -20 20 -43 52
-50 70 -18 43 -25 44 -13 2z"></path>
<path d="M2153 733 c9 -2 23 -2 30 0 6 3 -1 5 -18 5 -16 0 -22 -2 -12 -5z"></path>
<path d="M2796 705 c-9 -26 -7 -32 5 -12 6 10 9 21 6 23 -2 3 -7 -2 -11 -11z"></path>
<path d="M2808 673 c-29 -34 -30 -48 -2 -21 15 15 26 30 23 33 -3 3 -13 -3
-21 -12z"></path>
<path d="M2842 615 c0 -16 2 -22 5 -12 2 9 2 23 0 30 -3 6 -5 -1 -5 -18z"></path>
<path d="M3475 2509 c-90 -50 -190 -92 -296 -123 -46 -14 -81 -25 -77 -25 13
-1 -35 -53 -67 -72 -22 -14 -25 -19 -12 -19 29 0 56 18 71 49 12 23 27 31 79
44 90 23 215 77 303 132 40 26 74 48 74 51 0 6 4 7 -75 -37z"></path>
<path d="M1600 2534 c0 -1 28 -20 63 -43 76 -49 205 -107 275 -121 39 -9 51
-16 54 -32 3 -24 41 -53 78 -62 17 -5 13 0 -13 14 -23 13 -44 34 -52 53 -12
28 -21 34 -82 50 -38 10 -126 46 -196 81 -70 34 -127 61 -127 60z"></path>
<path d="M1125 2426 c-34 -42 -75 -136 -75 -173 0 -9 27 29 60 84 33 56 64
105 70 108 11 7 4 25 -10 25 -5 0 -25 -20 -45 -44z"></path>
<path d="M3926 2462 c-4 -7 5 -28 22 -50 16 -20 51 -71 76 -112 41 -65 47 -70
41 -40 -11 55 -43 116 -89 167 -29 31 -45 43 -50 35z"></path>
<path d="M2130 2339 c-14 -6 -33 -8 -42 -5 -10 2 -21 0 -24 -6 -4 -6 11 -9 42
-7 46 3 52 0 96 -44 56 -55 111 -74 163 -57 18 6 36 17 39 25 6 17 -10 30 -19
15 -3 -5 -28 -10 -54 -10 -51 0 -116 34 -147 78 -17 24 -19 25 -54 11z"></path>
<path d="M2695 2220 c19 -21 48 -30 63 -21 6 4 -9 14 -34 23 -43 15 -45 15
-29 -2z"></path>
<path d="M2380 2210 c-23 -7 -23 -8 -3 -9 12 -1 25 4 28 9 3 6 5 10 3 9 -2 -1
-14 -5 -28 -9z"></path>
</g>
</svg><style>@media (prefers-color-scheme: light) { :root { filter: none; } }
@media (prefers-color-scheme: dark) { :root { filter: none; } }
</style></svg>